<svg width="420" height="360" viewBox="0 0 420 360" fill="none" xmlns="http://www.w3.org/2000/svg">
  <defs>
    <linearGradient id="bodyGradient" x1="210" y1="40" x2="210" y2="320" gradientUnits="userSpaceOnUse">
      <stop offset="0" stop-color="#74D4E3" />
      <stop offset="1" stop-color="#0FB5BA" />
    </linearGradient>
  </defs>
  <ellipse cx="210" cy="160" rx="130" ry="120" fill="url(#bodyGradient)" />
  <path d="M120 220C86 228 60 268 78 296C96 324 136 316 154 296C172 276 158 236 120 220Z" fill="#11C4C9" opacity="0.9"/>
  <path d="M300 220C334 228 360 268 342 296C324 324 284 316 266 296C248 276 262 236 300 220Z" fill="#11C4C9" opacity="0.9"/>
  <path d="M170 260C140 280 122 320 146 332C170 344 206 320 214 292C222 264 200 240 170 260Z" fill="#0FB5BA" opacity="0.85"/>
  <path d="M250 260C280 280 298 320 274 332C250 344 214 320 206 292C198 264 220 240 250 260Z" fill="#0FB5BA" opacity="0.85"/>
  <circle cx="170" cy="150" r="26" fill="white"/>
  <circle cx="250" cy="150" r="26" fill="white"/>
  <circle cx="176" cy="152" r="12" fill="#1E2A38"/>
  <circle cx="244" cy="152" r="12" fill="#1E2A38"/>
  <path d="M190 188C198 198 222 198 230 188" stroke="#1E2A38" stroke-width="6" stroke-linecap="round"/>
  <circle cx="158" cy="144" r="4" fill="#74D4E3" />
  <circle cx="262" cy="144" r="4" fill="#74D4E3" />
  <path d="M100 206C80 186 76 150 96 130" stroke="#74D4E3" stroke-width="12" stroke-linecap="round" opacity="0.6"/>
  <path d="M320 206C340 186 344 150 324 130" stroke="#74D4E3" stroke-width="12" stroke-linecap="round" opacity="0.6"/>
</svg>
