<svg width="64" height="64" viewBox="0 0 64 64" fill="none" xmlns="http://www.w3.org/2000/svg">
  <rect width="64" height="64" rx="20" fill="#0FB5BA"/>
  <path d="M20 29C20 23.477 24.477 19 30 19H34C39.523 19 44 23.477 44 29C44 32.75 41.948 36.003 38.845 37.801C37.281 38.705 37.318 40.992 38.911 41.842L41.5 43.2C42.468 43.714 43.626 43.263 44.101 42.276C44.682 41.074 46.186 40.631 47.246 41.433C48.641 42.489 48.45 44.62 46.911 45.373L41.747 47.918C38.58 49.473 34.889 48.402 32.72 45.679L31.563 44.232C31.23 43.813 30.77 43.813 30.437 44.232L29.28 45.679C27.111 48.402 23.42 49.473 20.253 47.918L15.089 45.373C13.55 44.62 13.359 42.489 14.754 41.433C15.814 40.631 17.318 41.074 17.899 42.276C18.374 43.263 19.532 43.714 20.5 43.2L23.089 41.842C24.682 40.992 24.719 38.705 23.155 37.801C20.052 36.003 18 32.75 18 29C18 23.477 22.477 19 28 19H30C24.477 19 20 23.477 20 29Z" fill="white"/>
</svg>
